# xmcd CD database file
#
# Track frame offsets:
#	150
#	13498
#	28436
#	42983
#	58198
#	71882
#	86429
#	100279
#	114520
#	126810
#	140437
#	155040
#	169392
#	183856
#	198264
#	212421
#	225435
#	236611
#	250768
#	264200
#	277465
#	289031
#	303132
#
# Disc length: 4218 seconds
#
# Revision: 0
# Processed by: cddbd v1.5.2PL0 Copyright (c) Steve Scherf et al.
# Submitted via: CDex 1.70beta2
#
DISCID=55107817
DTITLE=Sleepy John Estes - Brownsville Blues
DYEAR=1969
DGENRE=Blues
TTITLE0=38 Pistol
TTITLE1=The Girl I Love
TTITLE2=City Hall Blues
TTITLE3=Time is Drawing Near
TTITLE4=God Can Use Me
TTITLE5=Government Money
TTITLE6=Working Man Blues
TTITLE7=Mailman Blues
TTITLE8=Mary Come On Home
TTITLE9=I'd Been Well Warned
TTITLE10=Pat Mann
TTITLE11=Drop Down Mamma
TTITLE12=Vassie Williams
TTITLE13=Young Lawyer
TTITLE14=Al Rawls
TTITLE15=Lawyer Clarck
TTITLE16=Martha Hardin
TTITLE17=Rats In My Kitchen
TTITLE18=Mailman Blues
TTITLE19=Jailhouse Blues
TTITLE20=You Shouldn't Do That
TTITLE21=Lawyer Clark Blues
TTITLE22=Working Man Blues
EXTD=YEAR: 1969
EXTT0=
EXTT1=
EXTT2=
EXTT3=
EXTT4=
EXTT5=
EXTT6=
EXTT7=
EXTT8=
EXTT9=
EXTT10=
EXTT11=
EXTT12=
EXTT13=
EXTT14=
EXTT15=
EXTT16=
EXTT17=
EXTT18=
EXTT19=
EXTT20=
EXTT21=
EXTT22=
PLAYORDER=
